<svg width="54" height="54" viewBox="0 0 54 54" fill="none" xmlns="http://www.w3.org/2000/svg">
<path d="M27 24C32.5228 24 37 19.7467 37 14.5C37 9.25329 32.5228 5 27 5C21.4772 5 17 9.25329 17 14.5C17 19.7467 21.4772 24 27 24Z" fill="url(#paint0_linear_1_82)"/>
<path d="M26.9999 0C19.1489 0 12.762 6.38701 12.762 14.238C12.762 22.089 19.1489 28.477 26.9999 28.477C34.8509 28.477 41.2379 22.089 41.2379 14.238C41.2379 6.38701 34.8509 0 26.9999 0ZM32.288 17.803C31.892 20.015 29.7849 21.621 27.2759 21.621C25.2509 21.621 23.3499 20.805 22.0609 19.382C21.4739 18.734 21.523 17.734 22.171 17.147C22.818 16.56 23.819 16.61 24.405 17.257C25.086 18.008 26.1589 18.457 27.2759 18.457C28.3279 18.457 29.0669 17.842 29.1729 17.247C29.3129 16.461 28.108 15.952 27.736 15.814C25.932 15.149 24.3309 14.436 24.2639 14.406C24.1869 14.372 24.1139 14.332 24.0439 14.286C22.7769 13.461 22.1249 12.012 22.3409 10.507C22.5709 8.906 23.739 7.602 25.39 7.105C28.555 6.151 31.1689 8.228 31.3889 8.408C31.3889 8.40901 31.3899 8.41 31.3909 8.41C31.3949 8.413 31.3989 8.41701 31.4009 8.41901V8.42C31.7459 8.71 31.9659 9.144 31.9659 9.63C31.9659 10.504 31.2569 11.212 30.3839 11.212C29.9959 11.212 29.641 11.072 29.366 10.841L29.3759 10.849C29.3609 10.837 27.8829 9.659 26.3029 10.134C25.6309 10.337 25.499 10.777 25.473 10.957C25.455 11.078 25.446 11.368 25.697 11.58C26.121 11.765 27.4289 12.328 28.8309 12.845C31.8339 13.953 32.586 16.133 32.288 17.803Z" fill="url(#paint1_linear_1_82)"/>
<path fill-rule="evenodd" clip-rule="evenodd" d="M53.5218 37.366L48.1429 32.093C47.8479 31.803 47.4499 31.641 47.0359 31.641H6.96384C6.54984 31.641 6.15184 31.803 5.85684 32.093L0.477878 37.366C-0.534122 38.358 0.167872 40.078 1.58487 40.078H20.0389C20.4529 40.078 20.8508 39.916 21.1468 39.626L26.9999 33.887L32.8529 39.626C33.1489 39.916 33.5468 40.078 33.9608 40.078H52.4148C53.8318 40.078 54.5338 38.358 53.5218 37.366ZM20.0389 43.242H5.37888V52.418C5.37888 53.292 6.08685 54 6.96085 54H25.4179V39.869L23.3619 41.885C22.4689 42.76 21.2889 43.242 20.0389 43.242ZM28.5818 39.869L30.6379 41.885C31.5309 42.76 32.7108 43.242 33.9608 43.242H48.6208V52.418C48.6208 53.292 47.9129 54 47.0389 54H28.5818V39.869Z" fill="url(#paint2_linear_1_82)"/>
<defs>
<linearGradient id="paint0_linear_1_82" x1="27" y1="24" x2="27" y2="5" gradientUnits="userSpaceOnUse">
<stop stop-color="#C3FFE8"/>
<stop offset="0.9973" stop-color="#F0FFF4"/>
</linearGradient>
<linearGradient id="paint1_linear_1_82" x1="41.2379" y1="14.2385" x2="12.762" y2="14.2385" gradientUnits="userSpaceOnUse">
<stop stop-color="#A6185E"/>
<stop offset="1" stop-color="#070097"/>
</linearGradient>
<linearGradient id="paint2_linear_1_82" x1="27.0006" y1="54" x2="27.0006" y2="31.6407" gradientUnits="userSpaceOnUse">
<stop stop-color="white"/>
<stop offset="0.9973" stop-color="#F0FFF4"/>
</linearGradient>
</defs>
</svg>
