<svg width="56" height="44" viewBox="0 0 56 44" fill="none" xmlns="http://www.w3.org/2000/svg">
<path d="M29.531 10.5156H6.5625V20.3594H29.531V10.5156ZM47.797 7.23438H34.453C33.546 7.23438 32.812 7.96818 32.812 8.87498V22C32.812 24.714 30.605 26.9219 27.891 26.9219H21.3281C20.4213 26.9219 19.6875 27.6557 19.6875 28.5625C19.6875 33.0855 23.3661 36.7656 27.891 36.7656H40.238C42.333 40.8207 46.464 43.3281 51.078 43.3281C51.741 43.3281 52.341 42.9292 52.594 42.3155C52.847 41.7018 52.706 40.9969 52.238 40.5275C51.133 39.422 50.322 38.0265 49.876 36.4948C53.43 35.5688 56 32.3837 56 28.5625V15.4375C56 10.9145 52.321 7.23438 47.797 7.23438Z" fill="white"/>
<path d="M27.891 0.671875H8.2031C3.675 0.671875 0 4.34688 0 8.87498V22C0 25.8061 2.5595 29.0219 6.1359 29.9405C5.6766 31.45 4.8562 32.8608 3.7735 33.9763C3.2812 34.4357 3.1501 35.1249 3.4125 35.7483C3.675 36.3719 4.2656 36.7656 4.9219 36.7656C9.5483 36.7656 13.6827 34.239 15.75 30.2031H27.891C32.419 30.2031 36.094 26.5281 36.094 22V8.87498C36.094 4.34688 32.419 0.671875 27.891 0.671875ZM11.4844 17.0781C10.5655 17.0781 9.8438 16.3561 9.8438 15.4375C9.8438 14.5186 10.5655 13.7969 11.4844 13.7969C12.4032 13.7969 13.125 14.5186 13.125 15.4375C13.125 16.3561 12.4032 17.0781 11.4844 17.0781ZM18.0469 17.0781C17.128 17.0781 16.4062 16.3561 16.4062 15.4375C16.4062 14.5186 17.128 13.7969 18.0469 13.7969C18.9657 13.7969 19.6875 14.5186 19.6875 15.4375C19.6875 16.3561 18.9657 17.0781 18.0469 17.0781ZM24.609 17.0781C23.6905 17.0781 22.9688 16.3561 22.9688 15.4375C22.9688 14.5186 23.6905 13.7969 24.609 13.7969C25.528 13.7969 26.25 14.5186 26.25 15.4375C26.25 16.3561 25.528 17.0781 24.609 17.0781Z" fill="url(#paint0_linear_213_11)"/>
<defs>
<linearGradient id="paint0_linear_213_11" x1="36.094" y1="18.7187" x2="-2.03421e-07" y2="18.7187" gradientUnits="userSpaceOnUse">
<stop stop-color="#A6185E"/>
<stop offset="1" stop-color="#070097"/>
</linearGradient>
</defs>
</svg>
