<svg width="49" height="48" viewBox="0 0 49 48" fill="none" xmlns="http://www.w3.org/2000/svg">
<path d="M42.31 33.2397C49.9 25.6457 49.9 13.2892 42.31 5.69532C34.71 -1.89868 22.3499 -1.89868 14.7599 5.69532C8.31994 12.1377 7.33989 21.7193 11.8299 29.2015C11.8299 29.2015 12.1499 29.7424 11.7199 30.1775C9.22991 32.6615 1.77996 40.1145 1.77996 40.1145C-0.200036 42.0922 -0.670099 44.8577 1.0899 46.612L1.38995 46.9137C3.13995 48.6679 5.90995 48.1972 7.88995 46.2194C7.88995 46.2194 15.32 38.7822 17.8 36.3033C18.26 35.847 18.8 36.1694 18.8 36.1694C26.28 40.6577 35.86 39.6821 42.31 33.2397ZM18.3599 29.6438C12.7499 24.0326 12.7499 14.9026 18.3599 9.29152C23.9699 3.68042 33.0999 3.68032 38.7099 9.29152C44.3199 14.9025 44.3199 24.0326 38.7099 29.6438C33.0999 35.2546 23.9699 35.2546 18.3599 29.6438Z" fill="url(#paint0_linear_1_89)"/>
<path d="M19.5999 18.3118C19.3399 18.3118 19.0698 18.2605 18.8198 18.1524C17.7898 17.7197 17.3199 16.5402 17.7499 15.5178C20.4699 9.09162 27.9098 6.07592 34.3298 8.79522C35.3598 9.22782 35.8299 10.4073 35.3999 11.4297C34.9699 12.4521 33.7899 12.9301 32.7699 12.4976C28.3799 10.6424 23.3098 12.7 21.4498 17.0844C21.1298 17.8512 20.3799 18.3118 19.5999 18.3118Z" fill="url(#paint1_linear_1_89)"/>
<defs>
<linearGradient id="paint0_linear_1_89" x1="48.0025" y1="23.9998" x2="-0.000976833" y2="23.9998" gradientUnits="userSpaceOnUse">
<stop stop-color="#A6185E"/>
<stop offset="1" stop-color="#070097"/>
</linearGradient>
<linearGradient id="paint1_linear_1_89" x1="26.5752" y1="18.3118" x2="26.5752" y2="7.79459" gradientUnits="userSpaceOnUse">
<stop stop-color="white"/>
<stop offset="0.9973" stop-color="#F0FFF4"/>
</linearGradient>
</defs>
</svg>
