<svg width="102" height="20" viewBox="0 0 102 20" fill="none" xmlns="http://www.w3.org/2000/svg">
<path d="M6.123 5.939V6.901H2.184V9.956H5.382V10.918H2.184V15H1.001V5.939H6.123ZM10.7588 15.117C10.0914 15.117 9.48478 14.9653 8.93878 14.662C8.40145 14.3587 7.97678 13.9297 7.66478 13.375C7.36145 12.8117 7.20978 12.1617 7.20978 11.425C7.20978 10.697 7.36578 10.0557 7.67778 9.501C7.99845 8.93767 8.43178 8.50867 8.97778 8.214C9.52378 7.91067 10.1348 7.759 10.8108 7.759C11.4868 7.759 12.0978 7.91067 12.6438 8.214C13.1898 8.50867 13.6188 8.93333 13.9308 9.488C14.2514 10.0427 14.4118 10.6883 14.4118 11.425C14.4118 12.1617 14.2471 12.8117 13.9178 13.375C13.5971 13.9297 13.1594 14.3587 12.6048 14.662C12.0501 14.9653 11.4348 15.117 10.7588 15.117ZM10.7588 14.077C11.1834 14.077 11.5821 13.9773 11.9548 13.778C12.3274 13.5787 12.6264 13.2797 12.8518 12.881C13.0858 12.4823 13.2028 11.997 13.2028 11.425C13.2028 10.853 13.0901 10.3677 12.8648 9.969C12.6394 9.57033 12.3448 9.27567 11.9808 9.085C11.6168 8.88567 11.2224 8.786 10.7978 8.786C10.3644 8.786 9.96578 8.88567 9.60178 9.085C9.24645 9.27567 8.96045 9.57033 8.74378 9.969C8.52711 10.3677 8.41878 10.853 8.41878 11.425C8.41878 12.0057 8.52278 12.4953 8.73078 12.894C8.94745 13.2927 9.23345 13.5917 9.58878 13.791C9.94411 13.9817 10.3341 14.077 10.7588 14.077ZM17.2502 9.033C17.4582 8.62567 17.7529 8.30933 18.1342 8.084C18.5242 7.85867 18.9965 7.746 19.5512 7.746V8.968H19.2392C17.9132 8.968 17.2502 9.68733 17.2502 11.126V15H16.0672V7.876H17.2502V9.033ZM29.5838 7.746C30.1385 7.746 30.6325 7.863 31.0658 8.097C31.4992 8.32233 31.8415 8.66467 32.0928 9.124C32.3442 9.58333 32.4698 10.1423 32.4698 10.801V15H31.2998V10.97C31.2998 10.2593 31.1222 9.71767 30.7668 9.345C30.4202 8.96367 29.9478 8.773 29.3498 8.773C28.7345 8.773 28.2448 8.97233 27.8808 9.371C27.5168 9.761 27.3348 10.3287 27.3348 11.074V15H26.1648V10.97C26.1648 10.2593 25.9872 9.71767 25.6318 9.345C25.2852 8.96367 24.8128 8.773 24.2148 8.773C23.5995 8.773 23.1098 8.97233 22.7458 9.371C22.3818 9.761 22.1998 10.3287 22.1998 11.074V15H21.0168V7.876H22.1998V8.903C22.4338 8.53033 22.7458 8.24433 23.1358 8.045C23.5345 7.84567 23.9722 7.746 24.4488 7.746C25.0468 7.746 25.5755 7.88033 26.0348 8.149C26.4942 8.41767 26.8365 8.812 27.0618 9.332C27.2612 8.82933 27.5905 8.43933 28.0498 8.162C28.5092 7.88467 29.0205 7.746 29.5838 7.746ZM34.0684 11.412C34.0684 10.684 34.2157 10.047 34.5104 9.501C34.805 8.94633 35.208 8.51733 35.7194 8.214C36.2394 7.91067 36.8157 7.759 37.4484 7.759C38.0724 7.759 38.614 7.89333 39.0734 8.162C39.5327 8.43067 39.875 8.76867 40.1004 9.176V7.876H41.2964V15H40.1004V13.674C39.8664 14.09 39.5154 14.4367 39.0474 14.714C38.588 14.9827 38.0507 15.117 37.4354 15.117C36.8027 15.117 36.2307 14.961 35.7194 14.649C35.208 14.337 34.805 13.8993 34.5104 13.336C34.2157 12.7727 34.0684 12.1313 34.0684 11.412ZM40.1004 11.425C40.1004 10.8877 39.992 10.4197 39.7754 10.021C39.5587 9.62233 39.264 9.319 38.8914 9.111C38.5274 8.89433 38.1244 8.786 37.6824 8.786C37.2404 8.786 36.8374 8.89 36.4734 9.098C36.1094 9.306 35.819 9.60933 35.6024 10.008C35.3857 10.4067 35.2774 10.8747 35.2774 11.412C35.2774 11.958 35.3857 12.4347 35.6024 12.842C35.819 13.2407 36.1094 13.5483 36.4734 13.765C36.8374 13.973 37.2404 14.077 37.6824 14.077C38.1244 14.077 38.5274 13.973 38.8914 13.765C39.264 13.5483 39.5587 13.2407 39.7754 12.842C39.992 12.4347 40.1004 11.9623 40.1004 11.425ZM44.8385 8.851V13.05C44.8385 13.3967 44.9122 13.6437 45.0595 13.791C45.2069 13.9297 45.4625 13.999 45.8265 13.999H46.6975V15H45.6315C44.9729 15 44.4789 14.8483 44.1495 14.545C43.8202 14.2417 43.6555 13.7433 43.6555 13.05V8.851H42.7325V7.876H43.6555V6.082H44.8385V7.876H46.6975V8.851H44.8385ZM50.7529 15.117C50.2069 15.117 49.7172 15.026 49.2839 14.844C48.8505 14.6533 48.5082 14.3933 48.2569 14.064C48.0055 13.726 47.8669 13.3403 47.8409 12.907H49.0629C49.0975 13.2623 49.2622 13.5527 49.5569 13.778C49.8602 14.0033 50.2545 14.116 50.7399 14.116C51.1905 14.116 51.5459 14.0163 51.8059 13.817C52.0659 13.6177 52.1959 13.3663 52.1959 13.063C52.1959 12.751 52.0572 12.5213 51.7799 12.374C51.5025 12.218 51.0735 12.0663 50.4929 11.919C49.9642 11.7803 49.5309 11.6417 49.1929 11.503C48.8635 11.3557 48.5775 11.1433 48.3349 10.866C48.1009 10.58 47.9839 10.2073 47.9839 9.748C47.9839 9.384 48.0922 9.05033 48.3089 8.747C48.5255 8.44367 48.8332 8.20533 49.2319 8.032C49.6305 7.85 50.0855 7.759 50.5969 7.759C51.3855 7.759 52.0225 7.95833 52.5079 8.357C52.9932 8.75567 53.2532 9.30167 53.2879 9.995H52.1049C52.0789 9.62233 51.9272 9.32333 51.6499 9.098C51.3812 8.87267 51.0172 8.76 50.5579 8.76C50.1332 8.76 49.7952 8.851 49.5439 9.033C49.2925 9.215 49.1669 9.45333 49.1669 9.748C49.1669 9.982 49.2405 10.177 49.3879 10.333C49.5439 10.4803 49.7345 10.6017 49.9599 10.697C50.1939 10.7837 50.5145 10.8833 50.9219 10.996C51.4332 11.1347 51.8492 11.2733 52.1699 11.412C52.4905 11.542 52.7635 11.7413 52.9889 12.01C53.2229 12.2787 53.3442 12.6297 53.3529 13.063C53.3529 13.453 53.2445 13.804 53.0279 14.116C52.8112 14.428 52.5035 14.675 52.1049 14.857C51.7149 15.0303 51.2642 15.117 50.7529 15.117Z" fill="white"/>
<path fill-rule="evenodd" clip-rule="evenodd" d="M97 11.2756L100.577 8.20921C100.903 7.93026 101.43 7.93026 101.756 8.20921C102.081 8.48816 102.081 8.94042 101.756 9.21936L97.5893 12.7908C97.2638 13.0697 96.7362 13.0697 96.4107 12.7908L92.2441 9.21936C91.9186 8.94042 91.9186 8.48816 92.2441 8.20921C92.5695 7.93026 93.0972 7.93026 93.4226 8.20921L97 11.2756Z" fill="white"/>
</svg>
