<svg width="38" height="38" viewBox="0 0 38 38" fill="none" xmlns="http://www.w3.org/2000/svg">
<g clip-path="url(#clip0_27_32)">
<path d="M33.0032 15.2628C31.8301 15.2628 30.7978 15.7565 30.0379 16.5256C27.2445 14.5632 23.4776 13.3004 19.3036 13.1657L21.4719 3.25169L28.3758 4.82407C28.3758 6.53883 29.7532 7.93943 31.4432 7.93943C33.1657 7.93943 34.5508 6.50169 34.5508 4.78538C34.5508 3.06907 33.175 1.63133 31.4447 1.63133C30.2391 1.63133 29.1991 2.36955 28.6807 3.37859L21.0555 1.66383C20.6717 1.56014 20.2957 1.83871 20.1935 2.22871L17.8133 13.158C13.6719 13.3329 9.94519 14.5942 7.14245 16.5581C6.38257 15.7565 5.31007 15.2628 4.13697 15.2628C-0.214933 15.2628 -1.64029 21.1886 2.34483 23.2144C2.204 23.8412 2.14054 24.5098 2.14054 25.1768C2.14054 31.8331 9.53042 37.2266 18.6041 37.2266C27.7165 37.2266 35.1064 31.8331 35.1064 25.1768C35.1064 24.5098 35.0367 23.8103 34.865 23.1819C38.7696 21.1484 37.3319 15.2659 33.0032 15.2628ZM8.6684 23.6354C8.6684 21.8881 10.0458 20.4813 11.776 20.4813C13.466 20.4813 14.8449 21.8788 14.8449 23.6354C14.8449 25.3517 13.4676 26.7507 11.776 26.7507C10.0535 26.7585 8.6684 25.3517 8.6684 23.6354ZM25.443 31.0609C22.5939 33.9518 14.554 33.9518 11.7033 31.0609C11.3891 30.7823 11.3891 30.2901 11.7033 29.9729C11.9772 29.6943 12.4632 29.6943 12.7371 29.9729C14.913 32.237 22.1311 32.2757 24.4015 29.9729C24.6754 29.6943 25.1614 29.6943 25.4353 29.9729C25.7557 30.2917 25.7557 30.7838 25.443 31.0609ZM25.3796 26.7569C23.6896 26.7569 22.3122 25.3594 22.3122 23.6447C22.3122 21.8974 23.6896 20.4906 25.3796 20.4906C27.1021 20.4906 28.4872 21.8881 28.4872 23.6447C28.4795 25.3517 27.1021 26.7569 25.3796 26.7569Z" fill="white"/>
</g>
<defs>
<clipPath id="clip0_27_32">
<rect width="37.1429" height="37.1429" fill="white" transform="translate(0.000244141 0.857239)"/>
</clipPath>
</defs>
</svg>
