<svg width="38" height="38" viewBox="0 0 38 38" fill="none" xmlns="http://www.w3.org/2000/svg">
<g clip-path="url(#clip0_27_26)">
<path d="M19.1432 1.63133C8.88249 1.63133 0.571777 9.80276 0.571777 19.8809C0.571777 27.9455 5.89249 34.7844 13.27 37.1956C14.1986 37.3674 14.539 36.8025 14.539 36.3181C14.539 35.8848 14.5236 34.7365 14.5158 33.2151C9.34987 34.3155 8.26035 30.7668 8.26035 30.7668C7.41535 28.6605 6.19428 28.0972 6.19428 28.0972C4.51202 26.9659 6.32428 26.9891 6.32428 26.9891C8.18916 27.116 9.1688 28.8694 9.1688 28.8694C10.8248 31.6598 13.5161 30.8535 14.5777 30.3876C14.7449 29.2068 15.2231 28.4036 15.7539 27.947C11.6295 27.4905 7.29463 25.9212 7.29463 18.9291C7.29463 16.9373 8.01428 15.3092 9.20594 14.0324C8.99701 13.5712 8.37023 11.7156 9.36844 9.20229C9.36844 9.20229 10.9238 8.71324 14.4756 11.0734C15.9613 10.6679 17.5399 10.4667 19.1184 10.4574C20.697 10.4667 22.2756 10.6679 23.7613 11.0734C27.2899 8.71324 28.8452 9.20229 28.8452 9.20229C29.8434 11.7156 29.2167 13.5712 29.0309 14.0324C30.2149 15.3092 30.9345 16.9373 30.9345 18.9291C30.9345 25.9398 26.5934 27.4828 22.4613 27.9316C23.1113 28.4794 23.7149 29.5984 23.7149 31.3085C23.7149 33.7506 23.6917 35.713 23.6917 36.3057C23.6917 36.784 24.0167 37.355 24.9684 37.1724C32.3986 34.7767 37.7146 27.9331 37.7146 19.8809C37.7146 9.80276 29.3993 1.63133 19.1432 1.63133Z" fill="white"/>
</g>
<defs>
<clipPath id="clip0_27_26">
<rect width="37.1429" height="37.1429" fill="white" transform="translate(0.571777 0.857239)"/>
</clipPath>
</defs>
</svg>
