<svg width="38" height="38" viewBox="0 0 38 38" fill="none" xmlns="http://www.w3.org/2000/svg">
<path d="M27.0241 3.95248H11.5479C7.27428 3.95248 3.80981 7.41695 3.80981 11.6906V27.1668C3.80981 31.4404 7.27428 34.9049 11.5479 34.9049H27.0241C31.2977 34.9049 34.7622 31.4404 34.7622 27.1668V11.6906C34.7622 7.41695 31.2977 3.95248 27.0241 3.95248Z" stroke="white" stroke-width="2" stroke-linecap="round" stroke-linejoin="round"/>
<path d="M25.4766 18.4537C25.6676 19.7417 25.4476 21.0572 24.8479 22.2129C24.2482 23.3687 23.2993 24.3059 22.1363 24.8913C20.9732 25.4767 19.6551 25.6805 18.3696 25.4736C17.0841 25.2668 15.8965 24.6598 14.9758 23.7391C14.055 22.8184 13.4481 21.6308 13.2412 20.3453C13.0344 19.0597 13.2381 17.7417 13.8235 16.5786C14.4089 15.4155 15.3462 14.4667 16.5019 13.867C17.6577 13.2673 18.9731 13.0473 20.2611 13.2383C21.5749 13.4331 22.7912 14.0453 23.7304 14.9844C24.6696 15.9236 25.2818 17.1399 25.4766 18.4537Z" stroke="white" stroke-width="2" stroke-linecap="round" stroke-linejoin="round"/>
<path d="M27.7979 10.9168H27.813" stroke="white" stroke-width="2" stroke-linecap="round" stroke-linejoin="round"/>
</svg>
