<svg width="67" height="76" viewBox="0 0 67 76" fill="none" xmlns="http://www.w3.org/2000/svg">
<path fill-rule="evenodd" clip-rule="evenodd" d="M47.8467 0.234229C46.7495 -0.312654 45.4052 0.129728 44.8542 1.23204L42.6233 5.69388C42.0723 6.79635 42.5188 8.13617 43.6208 8.68749C44.7339 9.24023 46.0655 8.78391 46.6133 7.68967L48.8459 3.22784C49.3969 2.12536 48.9503 0.785388 47.8467 0.234229ZM30.9985 1.23204L33.2279 5.69404C33.7804 6.79636 33.3324 8.13633 32.2304 8.68749C31.1204 9.2388 29.7872 8.78771 29.2378 7.68967L27.0069 3.22784C26.4559 2.12536 26.9024 0.785388 28.0044 0.234229C29.1064 -0.312496 30.4427 0.12957 30.9985 1.23204ZM51.311 13.3846H55.773C57.0064 13.3846 58.0039 14.3824 58.0039 15.6157C58.0039 16.8488 57.0064 17.8466 55.773 17.8466H51.311C50.0776 17.8466 49.0801 16.8486 49.0801 15.6157C49.0801 14.3824 50.0776 13.3846 51.311 13.3846ZM20.0783 13.3846H24.5401C25.7735 13.3846 26.771 14.3824 26.771 15.6157C26.771 16.8488 25.7735 17.8466 24.5401 17.8466H20.0783C18.8449 17.8466 17.8474 16.8486 17.8474 15.6157C17.8474 14.3824 18.8449 13.3846 20.0783 13.3846Z" fill="url(#paint0_linear_18_262)"/>
<path d="M11.1546 35.8429H2.23091C0.999078 35.8429 0 36.8417 0 38.0738V73.7688C0 75.0009 0.997494 75.9999 2.23091 75.9999H11.1546C12.3864 75.9999 13.3855 75.0011 13.3855 73.7688V38.0737C13.3855 36.8417 12.3864 35.8429 11.1546 35.8429Z" fill="url(#paint1_linear_18_262)"/>
<path d="M66.8832 41.7567C66.4905 38.2958 63.2573 35.8429 59.774 35.8429H42.3811C43.86 33.1961 44.6532 25.7099 44.6168 22.6519C44.5598 17.5899 40.3671 13.5334 35.3052 13.5334H33.4638C32.2303 13.5334 31.2328 14.5313 31.2328 15.7644C31.2328 20.9233 29.2236 30.2351 25.4362 34.0238C22.8855 36.5738 20.7053 37.4978 17.8474 38.9265V72.4016C22.2237 73.8603 27.7796 76 36.2504 76H50.844C55.6526 76 59.3972 71.5464 57.5336 66.8411C60.3725 66.0676 62.4657 63.4642 62.4657 60.3835C62.4657 59.5141 62.2979 58.6819 61.9954 57.9171C66.7803 56.6137 68.5409 50.7066 65.2207 46.9977C66.4398 45.6349 67.1127 43.7708 66.8832 41.7567Z" fill="url(#paint2_linear_18_262)"/>
<defs>
<linearGradient id="paint0_linear_18_262" x1="37.9262" y1="17.8466" x2="37.9262" y2="-0.000253174" gradientUnits="userSpaceOnUse">
<stop stop-color="white"/>
<stop offset="0.9973" stop-color="#F0FFF4"/>
</linearGradient>
<linearGradient id="paint1_linear_18_262" x1="6.69293" y1="75.9999" x2="6.69293" y2="35.8423" gradientUnits="userSpaceOnUse">
<stop stop-color="white"/>
<stop offset="0.9973" stop-color="#F0FFF4"/>
</linearGradient>
<linearGradient id="paint2_linear_18_262" x1="66.9279" y1="44.7668" x2="17.8474" y2="44.7668" gradientUnits="userSpaceOnUse">
<stop stop-color="#A6185E"/>
<stop offset="1" stop-color="#070097"/>
</linearGradient>
</defs>
</svg>
