<svg width="48" height="48" viewBox="0 0 48 48" fill="none" xmlns="http://www.w3.org/2000/svg">
<path d="M29 1H2V30H29V1Z" fill="white"/>
<path d="M28.5 0H5.5C2.46 0 0 2.46 0 5.5V36.5C0 39.54 2.46 42 5.5 42H20.26L20.7 39.54C20.9 38.42 21.42 37.42 22.22 36.6L34 24.84V5.5C34 2.46 31.54 0 28.5 0ZM8 8H16C17.1 8 18 8.9 18 10C18 11.1 17.1 12 16 12H8C6.9 12 6 11.1 6 10C6 8.9 6.9 8 8 8ZM18 28H8C6.9 28 6 27.1 6 26C6 24.9 6.9 24 8 24H18C19.1 24 20 24.9 20 26C20 27.1 19.1 28 18 28ZM26 20H8C6.9 20 6 19.1 6 18C6 16.9 6.9 16 8 16H26C27.1 16 28 16.9 28 18C28 19.1 27.1 20 26 20Z" fill="url(#paint0_linear_1_68)"/>
<path d="M25.0559 48C24.6619 48 24.2779 47.844 23.9959 47.56C23.6499 47.214 23.4939 46.722 23.5799 46.238L24.6399 40.228C24.6919 39.926 24.8399 39.646 25.0559 39.428L39.9059 24.58C41.7299 22.752 43.5219 23.246 44.5019 24.226L46.9759 26.7C48.3419 28.064 48.3419 30.284 46.9759 31.65L32.1259 46.5C31.9099 46.718 31.6299 46.864 31.3259 46.916L25.3159 47.976C25.2299 47.992 25.1419 48 25.0559 48ZM31.0659 45.44H31.0859H31.0659Z" fill="url(#paint1_linear_1_68)"/>
<defs>
<linearGradient id="paint0_linear_1_68" x1="34" y1="21" x2="-1.9162e-07" y2="21" gradientUnits="userSpaceOnUse">
<stop stop-color="#A6185E"/>
<stop offset="1" stop-color="#070097"/>
</linearGradient>
<linearGradient id="paint1_linear_1_68" x1="35.7789" y1="48" x2="35.7789" y2="23.349" gradientUnits="userSpaceOnUse">
<stop stop-color="white"/>
<stop offset="0.9973" stop-color="#F0FFF4"/>
</linearGradient>
</defs>
</svg>
