<svg width="44" height="48" viewBox="0 0 44 48" fill="none" xmlns="http://www.w3.org/2000/svg">
<path fill-rule="evenodd" clip-rule="evenodd" d="M31.0839 0.147873C30.3909 -0.197527 29.5419 0.0818727 29.1939 0.778073L27.7849 3.59607C27.4369 4.29237 27.7189 5.13857 28.4149 5.48677C29.1179 5.83587 29.9589 5.54767 30.3049 4.85657L31.715 2.03857C32.063 1.34227 31.7809 0.495973 31.0839 0.147873ZM20.4429 0.778073L21.851 3.59617C22.2 4.29237 21.9169 5.13867 21.2209 5.48677C20.5199 5.83497 19.6779 5.55007 19.3309 4.85657L17.9219 2.03857C17.5739 1.34227 17.8559 0.495973 18.5519 0.147873C19.2479 -0.197427 20.0919 0.0817727 20.4429 0.778073ZM33.2719 8.45337H36.09C36.869 8.45337 37.499 9.08357 37.499 9.86247C37.499 10.6413 36.869 11.2715 36.09 11.2715H33.2719C32.4929 11.2715 31.8629 10.6412 31.8629 9.86247C31.8629 9.08357 32.4929 8.45337 33.2719 8.45337ZM13.546 8.45337H16.364C17.143 8.45337 17.7729 9.08357 17.7729 9.86247C17.7729 10.6413 17.143 11.2715 16.364 11.2715H13.546C12.767 11.2715 12.137 10.6412 12.137 9.86247C12.137 9.08357 12.767 8.45337 13.546 8.45337Z" fill="url(#paint0_linear_1_75)"/>
<path d="M7.90997 22.6376H2.27399C1.49599 22.6376 0.86499 23.2684 0.86499 24.0466V46.5908C0.86499 47.369 1.49499 47.9999 2.27399 47.9999H7.90997C8.68797 47.9999 9.31897 47.3691 9.31897 46.5908V24.0465C9.31897 23.2684 8.68797 22.6376 7.90997 22.6376Z" fill="url(#paint1_linear_1_75)"/>
<path d="M43.1069 26.3726C42.8589 24.1868 40.8169 22.6376 38.6169 22.6376H27.632C28.566 20.9659 29.0669 16.2378 29.0439 14.3064C29.0079 11.1094 26.36 8.54736 23.163 8.54736H21.9999C21.2209 8.54736 20.5909 9.17756 20.5909 9.95636C20.5909 13.2147 19.3219 19.0958 16.9299 21.4887C15.3189 23.0992 13.942 23.6828 12.137 24.5851V45.7273C14.901 46.6486 18.4099 48 23.7599 48H32.9769C36.0139 48 38.379 45.1872 37.202 42.2154C38.995 41.7269 40.317 40.0826 40.317 38.1369C40.317 37.5878 40.211 37.0622 40.02 36.5792C43.042 35.756 44.1539 32.0252 42.0569 29.6827C42.8269 28.822 43.2519 27.6447 43.1069 26.3726Z" fill="url(#paint2_linear_1_75)"/>
<defs>
<linearGradient id="paint0_linear_1_75" x1="24.8183" y1="11.2715" x2="24.8183" y2="-0.000220934" gradientUnits="userSpaceOnUse">
<stop stop-color="white"/>
<stop offset="0.9973" stop-color="#F0FFF4"/>
</linearGradient>
<linearGradient id="paint1_linear_1_75" x1="5.0921" y1="47.9999" x2="5.0921" y2="22.6372" gradientUnits="userSpaceOnUse">
<stop stop-color="white"/>
<stop offset="0.9973" stop-color="#F0FFF4"/>
</linearGradient>
<linearGradient id="paint2_linear_1_75" x1="43.1352" y1="28.2737" x2="12.137" y2="28.2737" gradientUnits="userSpaceOnUse">
<stop stop-color="#A6185E"/>
<stop offset="1" stop-color="#070097"/>
</linearGradient>
</defs>
</svg>
