<svg width="38" height="38" viewBox="0 0 38 38" fill="none" xmlns="http://www.w3.org/2000/svg">
<path d="M36.4526 5.50015C34.9706 6.54553 33.3297 7.34508 31.5931 7.86801C30.6611 6.7963 29.4223 6.0367 28.0445 5.69194C26.6666 5.34718 25.2162 5.43391 23.8892 5.94038C22.5622 6.44685 21.4229 7.34863 20.6251 8.52376C19.8274 9.69889 19.4098 11.0907 19.4288 12.5109V14.0585C16.7091 14.129 14.0141 13.5258 11.584 12.3026C9.1538 11.0794 7.06385 9.27423 5.50027 7.04777C5.50027 7.04777 -0.690209 20.9763 13.2384 27.1668C10.0511 29.3303 6.2542 30.4152 2.40503 30.2621C16.3336 38.0001 33.3574 30.2621 33.3574 12.4644C33.356 12.0334 33.3145 11.6033 33.2336 11.1799C34.8131 9.62222 35.9277 7.65554 36.4526 5.50015V5.50015Z" fill="white"/>
</svg>
