<svg width="38" height="38" viewBox="0 0 38 38" fill="none" xmlns="http://www.w3.org/2000/svg">
<g clip-path="url(#clip0_27_34)">
<path d="M34.3222 8.18182L37.2859 5.34658V4.72598H27.019L19.7019 22.9384L11.3772 4.72598H0.611995V5.34658L4.07402 9.51432C4.4114 9.82229 4.58783 10.2726 4.54295 10.7261V27.1046C4.64973 27.6942 4.45783 28.3009 4.04307 28.7296L0.143066 33.456V34.0688H11.2008V33.4482L7.3008 28.7296C6.8783 28.2993 6.67866 27.7035 6.76378 27.1046V12.9376L16.4704 34.0766H17.5987L25.945 12.9376V29.7773C25.945 30.2215 25.945 30.3128 25.654 30.6037L22.6516 33.5086V34.1307H37.2178V33.5102L34.3238 30.6765C34.07 30.4846 33.9384 30.1626 33.9926 29.85V9.00824C33.9384 8.69408 34.0684 8.37217 34.3222 8.18182Z" fill="white"/>
</g>
<defs>
<clipPath id="clip0_27_34">
<rect width="37.1429" height="37.1429" fill="white" transform="translate(0.143066 0.857239)"/>
</clipPath>
</defs>
</svg>
