<svg width="76" height="76" viewBox="0 0 76 76" fill="none" xmlns="http://www.w3.org/2000/svg">
<path d="M45.9165 1.58331H3.1665V47.5H45.9165V1.58331Z" fill="white"/>
<path d="M45.125 0H8.70833C3.895 0 0 3.895 0 8.70833V57.7917C0 62.605 3.895 66.5 8.70833 66.5H32.0784L32.775 62.605C33.0917 60.8317 33.915 59.2483 35.1817 57.95L53.8333 39.33V8.70833C53.8333 3.895 49.9383 0 45.125 0ZM12.6667 12.6667H25.3333C27.075 12.6667 28.5 14.0917 28.5 15.8333C28.5 17.575 27.075 19 25.3333 19H12.6667C10.925 19 9.5 17.575 9.5 15.8333C9.5 14.0917 10.925 12.6667 12.6667 12.6667ZM28.5 44.3333H12.6667C10.925 44.3333 9.5 42.9083 9.5 41.1667C9.5 39.425 10.925 38 12.6667 38H28.5C30.2417 38 31.6667 39.425 31.6667 41.1667C31.6667 42.9083 30.2417 44.3333 28.5 44.3333ZM41.1667 31.6667H12.6667C10.925 31.6667 9.5 30.2417 9.5 28.5C9.5 26.7583 10.925 25.3333 12.6667 25.3333H41.1667C42.9083 25.3333 44.3333 26.7583 44.3333 28.5C44.3333 30.2417 42.9083 31.6667 41.1667 31.6667Z" fill="url(#paint0_linear_18_309)"/>
<path d="M39.6718 76.0001C39.048 76.0001 38.44 75.7531 37.9935 75.3034C37.4457 74.7556 37.1986 73.9766 37.3348 73.2102L39.0132 63.6944C39.0955 63.2162 39.3298 62.7729 39.6718 62.4277L63.1843 38.9184C66.0723 36.024 68.9097 36.8062 70.4613 38.3579L74.3785 42.2751C76.5413 44.4347 76.5413 47.9497 74.3785 50.1125L50.866 73.6251C50.524 73.9702 50.0806 74.2014 49.5993 74.2837L40.0835 75.9621C39.9473 75.9874 39.808 76.0001 39.6718 76.0001ZM49.1877 71.9467H49.2193H49.1877Z" fill="url(#paint1_linear_18_309)"/>
<defs>
<linearGradient id="paint0_linear_18_309" x1="53.8333" y1="33.25" x2="-3.03398e-07" y2="33.25" gradientUnits="userSpaceOnUse">
<stop stop-color="#A6185E"/>
<stop offset="1" stop-color="#070097"/>
</linearGradient>
<linearGradient id="paint1_linear_18_309" x1="56.6499" y1="76.0001" x2="56.6499" y2="36.9693" gradientUnits="userSpaceOnUse">
<stop stop-color="white"/>
<stop offset="0.9973" stop-color="#F0FFF4"/>
</linearGradient>
</defs>
</svg>
